<!-- Generator: Adobe Illustrator 23.0.1, SVG Export Plug-In  -->
<svg version="1.1" xmlns="http://www.w3.org/2000/svg" xmlns:xlink="http://www.w3.org/1999/xlink" x="0px" y="0px"
	 width="101.66px" height="101.66px" viewBox="0 0 101.66 101.66" style="enable-background:new 0 0 101.66 101.66;"
	 xml:space="preserve">
<style type="text/css">
	.st0{fill:#FFFFFF;}
	.st1{fill:#937635;}
</style>
<defs>
</defs>
<g>
	<circle class="st0" cx="50.83" cy="50.83" r="50.83"/>
	<path class="st1" d="M64.15,59.13c0.24,0,0.43,0,0.66,0c0,0.89,0,1.76,0,2.66c0.79,0,1.55,0,2.33,0c0,1.57,0,3.11,0,4.68
		c-10.69,0-21.37,0-32.08,0c0-1.55,0-3.08,0-4.66c0.77,0,1.53,0,2.32,0c0-0.9,0-1.77,0-2.67c0.25,0,0.48,0,0.77,0
		c0-0.73-0.01-1.41,0-2.1c0.07-6.25,0.13-12.51,0.2-18.76c0.07-6.37,4.61-11.59,10.94-12.55c6.91-1.05,13.38,3.53,14.64,10.37
		c0.15,0.81,0.21,1.64,0.22,2.46c0.02,6.7,0.01,13.4,0.01,20.1C64.15,58.8,64.15,58.95,64.15,59.13z M49.58,36.72
		c-1.45,0-2.88,0-4.32,0c0,1.07,0,2.11,0,3.18c1.45,0,2.87,0,4.33,0c0,3.92,0,7.8,0,11.69c1.02,0,1.99,0,3.01,0c0-3.9,0-7.78,0-11.7
		c1.46,0,2.88,0,4.32,0c0-1.07,0-2.1,0-3.17c-1.45,0-2.87,0-4.34,0c0-0.96,0-1.88,0-2.81c-1.02,0-2,0-3.01,0
		C49.58,34.84,49.58,35.77,49.58,36.72z"/>
</g>
</svg>