<!-- Generator: Adobe Illustrator 23.0.1, SVG Export Plug-In  -->
<svg version="1.1" xmlns="http://www.w3.org/2000/svg" xmlns:xlink="http://www.w3.org/1999/xlink" x="0px" y="0px"
	 width="101.66px" height="101.66px" viewBox="0 0 101.66 101.66" style="enable-background:new 0 0 101.66 101.66;"
	 xml:space="preserve">
<style type="text/css">
	.st0{fill:#FFFFFF;}
	.st1{fill:#17485D;}
</style>
<defs>
</defs>
<g>
	<circle class="st0" cx="50.83" cy="50.83" r="50.83"/>
	<path class="st1" d="M52,25.66l7.06,14.3c0.19,0.39,0.56,0.65,0.98,0.71l15.78,2.29c1.07,0.16,1.5,1.47,0.72,2.23L65.13,56.32
		c-0.31,0.3-0.45,0.73-0.38,1.16l2.7,15.72c0.18,1.07-0.94,1.88-1.89,1.38l-14.12-7.42c-0.38-0.2-0.83-0.2-1.22,0l-14.12,7.42
		c-0.96,0.5-2.08-0.31-1.89-1.38l2.7-15.72c0.07-0.42-0.07-0.86-0.38-1.16L25.11,45.19c-0.78-0.76-0.35-2.07,0.72-2.23l15.78-2.29
		c0.43-0.06,0.79-0.33,0.98-0.71l7.06-14.3C50.14,24.69,51.52,24.69,52,25.66z"/>
</g>
</svg>