<!-- Generator: Adobe Illustrator 23.0.1, SVG Export Plug-In  -->
<svg version="1.1" xmlns="http://www.w3.org/2000/svg" xmlns:xlink="http://www.w3.org/1999/xlink" x="0px" y="0px" width="170px"
	 height="200px" viewBox="0 0 170 200" style="enable-background:new 0 0 170 200;" xml:space="preserve">
<style type="text/css">
	.st0{fill:#FFFFFF;}
	.st1{fill:#17485D;}
</style>
<defs>
</defs>
<g>
	<ellipse class="st0" cx="86.28" cy="85.33" rx="67.67" ry="60.16"/>
	<g>
		<path class="st1" d="M86.17,58.13l7.06,14.3c0.19,0.39,0.56,0.65,0.98,0.71l15.78,2.29c1.07,0.16,1.5,1.47,0.72,2.23L99.3,88.79
			c-0.31,0.3-0.45,0.73-0.38,1.16l2.7,15.72c0.18,1.07-0.94,1.88-1.89,1.38l-14.12-7.42c-0.38-0.2-0.83-0.2-1.22,0l-14.12,7.42
			c-0.96,0.5-2.08-0.31-1.89-1.38l2.7-15.72c0.07-0.42-0.07-0.86-0.38-1.16L59.28,77.66c-0.78-0.76-0.35-2.07,0.72-2.23l15.78-2.29
			c0.43-0.06,0.79-0.33,0.98-0.71l7.06-14.3C84.31,57.16,85.69,57.16,86.17,58.13z"/>
		<path class="st1" d="M85,0C32.72,0,0,42.42,0,83.02s39.18,72,50.78,83.6S85,200,85,200s22.62-21.79,34.22-33.39
			S170,123.61,170,83.02S137.28,0,85,0z M85,134.84c-28.07,0-50.83-22.76-50.83-50.83S56.93,33.19,85,33.19s50.83,22.76,50.83,50.83
			S113.07,134.84,85,134.84z"/>
	</g>
</g>
</svg>