<!-- Generator: Adobe Illustrator 23.0.1, SVG Export Plug-In  -->
<svg version="1.1" xmlns="http://www.w3.org/2000/svg" xmlns:xlink="http://www.w3.org/1999/xlink" x="0px" y="0px" width="170px"
	 height="200px" viewBox="0 0 170 200" style="enable-background:new 0 0 170 200;" xml:space="preserve">
<style type="text/css">
	.st0{fill:#FFFFFF;}
	.st1{fill:#937635;}
</style>
<defs>
</defs>
<g>
	<ellipse class="st0" cx="84.04" cy="85.33" rx="67.67" ry="60.16"/>
	<g>
		<path class="st1" d="M85,0C32.72,0,0,42.42,0,83.02s39.18,72,50.78,83.6S85,200,85,200s22.62-21.79,34.22-33.39
			S170,123.61,170,83.02S137.28,0,85,0z M85,134.84c-28.07,0-50.83-22.76-50.83-50.83S56.93,33.19,85,33.19s50.83,22.76,50.83,50.83
			S113.07,134.84,85,134.84z"/>
	</g>
	<path class="st1" d="M98.36,93.5c0.24,0,0.43,0,0.66,0c0,0.89,0,1.76,0,2.66c0.79,0,1.55,0,2.33,0c0,1.57,0,3.11,0,4.68
		c-10.69,0-21.37,0-32.08,0c0-1.55,0-3.08,0-4.66c0.77,0,1.53,0,2.32,0c0-0.9,0-1.77,0-2.67c0.25,0,0.48,0,0.77,0
		c0-0.73-0.01-1.41,0-2.1c0.07-6.25,0.13-12.51,0.2-18.76c0.07-6.37,4.61-11.59,10.94-12.55c6.91-1.05,13.38,3.53,14.64,10.37
		c0.15,0.81,0.21,1.64,0.22,2.46c0.02,6.7,0.01,13.4,0.01,20.1C98.36,93.18,98.36,93.32,98.36,93.5z M83.79,71.09
		c-1.45,0-2.88,0-4.32,0c0,1.07,0,2.11,0,3.18c1.45,0,2.87,0,4.33,0c0,3.92,0,7.8,0,11.69c1.02,0,1.99,0,3.01,0c0-3.9,0-7.78,0-11.7
		c1.46,0,2.88,0,4.32,0c0-1.07,0-2.1,0-3.17c-1.45,0-2.87,0-4.34,0c0-0.96,0-1.88,0-2.81c-1.02,0-2,0-3.01,0
		C83.79,69.22,83.79,70.14,83.79,71.09z"/>
</g>
</svg>