<!-- Generator: Adobe Illustrator 23.0.1, SVG Export Plug-In  -->
<svg version="1.1" xmlns="http://www.w3.org/2000/svg" xmlns:xlink="http://www.w3.org/1999/xlink" x="0px" y="0px"
	 width="101.66px" height="101.66px" viewBox="0 0 101.66 101.66" style="enable-background:new 0 0 101.66 101.66;"
	 xml:space="preserve">
<style type="text/css">
	.st0{fill:#FFFFFF;}
	.st1{fill:#4A3323;}
</style>
<defs>
</defs>
<g>
	<circle class="st0" cx="50.83" cy="50.83" r="50.83"/>
	<g>
		<path class="st1" d="M74.49,31.09H27.09c-1.12,0-2.02,0.91-2.02,2.02v27.6c0,1.12,0.91,2.02,2.02,2.02h47.41
			c1.12,0,2.02-0.91,2.02-2.02v-27.6C76.52,32,75.61,31.09,74.49,31.09z M31.15,43.75h34.27v4.04H31.15V43.75z M68.5,54.5H31.15
			v-4.04H68.5V54.5z M70.51,41.08H31.15v-4.04h39.36V41.08z"/>
		<polygon class="st1" points="37.86,62.74 47.68,72.56 47.68,62.74 		"/>
	</g>
</g>
</svg>