<!-- Generator: Adobe Illustrator 23.0.1, SVG Export Plug-In  -->
<svg version="1.1" xmlns="http://www.w3.org/2000/svg" xmlns:xlink="http://www.w3.org/1999/xlink" x="0px" y="0px"
	 width="101.66px" height="101.66px" viewBox="0 0 101.66 101.66" style="enable-background:new 0 0 101.66 101.66;"
	 xml:space="preserve">
<style type="text/css">
	.st0{fill:#FFFFFF;}
	.st1{fill:#A5AA3A;}
</style>
<defs>
</defs>
<g>
	<circle class="st0" cx="50.83" cy="50.83" r="50.83"/>
	<path class="st1" d="M72.36,44.35H59.1c-0.99,0-1.79-0.8-1.79-1.79V29.3c0-0.99-0.8-1.79-1.79-1.79h-9.36
		c-0.99,0-1.79,0.8-1.79,1.79v13.26c0,0.99-0.8,1.79-1.79,1.79H29.3c-0.99,0-1.79,0.8-1.79,1.79v9.36c0,0.99,0.8,1.79,1.79,1.79
		h13.26c0.99,0,1.79,0.8,1.79,1.79v13.26c0,0.99,0.8,1.79,1.79,1.79h9.36c0.99,0,1.79-0.8,1.79-1.79V59.1c0-0.99,0.8-1.79,1.79-1.79
		h13.26c0.99,0,1.79-0.8,1.79-1.79v-9.36C74.15,45.16,73.35,44.35,72.36,44.35z"/>
</g>
</svg>