<!-- Generator: Adobe Illustrator 23.0.1, SVG Export Plug-In  -->
<svg version="1.1" xmlns="http://www.w3.org/2000/svg" xmlns:xlink="http://www.w3.org/1999/xlink" x="0px" y="0px" width="170px"
	 height="200px" viewBox="0 0 170 200" style="enable-background:new 0 0 170 200;" xml:space="preserve">
<style type="text/css">
	.st0{fill:#FFFFFF;}
	.st1{fill:#5E794C;}
</style>
<defs>
</defs>
<g>
	<ellipse class="st0" cx="85" cy="85.33" rx="67.67" ry="60.16"/>
	<g>
		<path class="st1" d="M85,0C32.72,0,0,42.42,0,83.02s39.18,72,50.78,83.6S85,200,85,200s22.62-21.79,34.22-33.39
			S170,123.61,170,83.02S137.28,0,85,0z M85,134.84c-28.07,0-50.83-22.76-50.83-50.83S56.93,33.19,85,33.19s50.83,22.76,50.83,50.83
			S113.07,134.84,85,134.84z"/>
	</g>
	<polygon class="st1" points="99.37,74.36 99.37,62.73 92.63,62.73 92.63,67.55 85,59.85 63,82.06 68.34,81.9 68.34,100.69 
		81.33,100.69 81.33,85.91 85,85.91 88.67,85.91 88.67,100.69 101.66,100.69 101.66,81.9 107,82.06 	"/>
</g>
</svg>