<!-- Generator: Adobe Illustrator 23.0.1, SVG Export Plug-In  -->
<svg version="1.1" xmlns="http://www.w3.org/2000/svg" xmlns:xlink="http://www.w3.org/1999/xlink" x="0px" y="0px" width="170px"
	 height="200px" viewBox="0 0 170 200" style="enable-background:new 0 0 170 200;" xml:space="preserve">
<style type="text/css">
	.st0{fill:#FFFFFF;}
	.st1{fill:#A5AA3A;}
</style>
<defs>
</defs>
<g>
	<ellipse class="st0" cx="85" cy="85.33" rx="67.67" ry="60.16"/>
	<g>
		<path class="st1" d="M106.53,75.82H93.27c-0.99,0-1.79-0.8-1.79-1.79V60.77c0-0.99-0.8-1.79-1.79-1.79h-9.36
			c-0.99,0-1.79,0.8-1.79,1.79v13.26c0,0.99-0.8,1.79-1.79,1.79H63.47c-0.99,0-1.79,0.8-1.79,1.79v9.36c0,0.99,0.8,1.79,1.79,1.79
			h13.26c0.99,0,1.79,0.8,1.79,1.79v13.26c0,0.99,0.8,1.79,1.79,1.79h9.36c0.99,0,1.79-0.8,1.79-1.79V90.57
			c0-0.99,0.8-1.79,1.79-1.79h13.26c0.99,0,1.79-0.8,1.79-1.79v-9.36C108.32,76.63,107.52,75.82,106.53,75.82z"/>
		<path class="st1" d="M85,0C32.72,0,0,42.42,0,83.02s39.18,72,50.78,83.6S85,200,85,200s22.62-21.79,34.22-33.39
			S170,123.61,170,83.02S137.28,0,85,0z M85,134.84c-28.07,0-50.83-22.76-50.83-50.83S56.93,33.19,85,33.19s50.83,22.76,50.83,50.83
			S113.07,134.84,85,134.84z"/>
	</g>
</g>
</svg>