<!-- Generator: Adobe Illustrator 23.0.1, SVG Export Plug-In  -->
<svg version="1.1" xmlns="http://www.w3.org/2000/svg" xmlns:xlink="http://www.w3.org/1999/xlink" x="0px" y="0px"
	 width="101.66px" height="101.66px" viewBox="0 0 101.66 101.66" style="enable-background:new 0 0 101.66 101.66;"
	 xml:space="preserve">
<style type="text/css">
	.st0{fill:#FFFFFF;}
	.st1{fill:#804230;}
</style>
<defs>
</defs>
<g>
	<circle class="st0" cx="50.83" cy="50.83" r="50.83"/>
	<path class="st1" d="M73.16,45.71c0-19.06-22.33-19.64-22.33-19.64s-22.33,0.58-22.33,19.64c0,0-0.32,4.59,2.82,8.8
		c0,0-2.99,5.97-0.08,8.8c2.91,2.83,7.73,1.38,7.73,1.38v5.2c0,0-1.3,3.69,5.89,3.69v-3.84c0,0-0.31-2.14,1.53-2.14
		c1.84,0,1.53,2.07,1.53,2.07v3.92h2.9h2.9v-3.92c0,0-0.31-2.07,1.53-2.07s1.53,2.14,1.53,2.14v3.84c7.19,0,5.89-3.69,5.89-3.69
		v-5.2c0,0,4.82,1.45,7.73-1.38c2.91-2.83-0.08-8.8-0.08-8.8C73.48,50.3,73.16,45.71,73.16,45.71z M42.78,55.06
		c-2.89,0-5.23-2.34-5.23-5.23s2.34-5.23,5.23-5.23c2.89,0,5.23,2.34,5.23,5.23S45.67,55.06,42.78,55.06z M58.88,55.06
		c-2.89,0-5.23-2.34-5.23-5.23s2.34-5.23,5.23-5.23c2.89,0,5.23,2.34,5.23,5.23S61.77,55.06,58.88,55.06z"/>
</g>
</svg>