<!-- Generator: Adobe Illustrator 23.0.1, SVG Export Plug-In  -->
<svg version="1.1" xmlns="http://www.w3.org/2000/svg" xmlns:xlink="http://www.w3.org/1999/xlink" x="0px" y="0px"
	 width="101.66px" height="101.66px" viewBox="0 0 101.66 101.66" style="enable-background:new 0 0 101.66 101.66;"
	 xml:space="preserve">
<style type="text/css">
	.st0{fill:#FFFFFF;}
</style>
<defs>
</defs>
<g>
	<circle class="st0" cx="50.83" cy="50.83" r="50.83"/>
	<path d="M68.39,24.56c-13.16,8.02-25.92,3.49-25.92,3.49c-7.59-1.19-11.05,3.58-12.31,6.04l-1.42-4.25
		c-0.18-0.52-0.74-0.8-1.27-0.63c-0.52,0.18-0.81,0.74-0.63,1.27l17.39,51.86c0.14,0.42,0.53,0.68,0.95,0.68
		c0.11,0,0.21-0.02,0.32-0.05c0.52-0.18,0.81-0.74,0.63-1.27l-8.25-24.59c1.1-2.22,4.33-6.72,12.41-6.22c0,0,14.6,2.63,25.92-3.49
		L68.39,24.56z"/>
</g>
</svg>