<!-- Generator: Adobe Illustrator 23.0.1, SVG Export Plug-In  -->
<svg version="1.1" xmlns="http://www.w3.org/2000/svg" xmlns:xlink="http://www.w3.org/1999/xlink" x="0px" y="0px" width="170px"
	 height="200px" viewBox="0 0 170 200" style="enable-background:new 0 0 170 200;" xml:space="preserve">
<style type="text/css">
	.st0{fill:#FFFFFF;}
	.st1{fill:#4A3323;}
</style>
<defs>
</defs>
<g>
	<ellipse class="st0" cx="84.04" cy="85.33" rx="67.67" ry="60.16"/>
	<g>
		<g>
			<path class="st1" d="M108.7,65.61H61.3c-1.12,0-2.02,0.91-2.02,2.02v27.6c0,1.12,0.91,2.02,2.02,2.02h47.41
				c1.12,0,2.02-0.91,2.02-2.02v-27.6C110.73,66.52,109.82,65.61,108.7,65.61z M65.36,78.27h34.27v4.04H65.36V78.27z M102.71,89.02
				H65.36v-4.04h37.35V89.02z M104.72,75.6H65.36v-4.04h39.36V75.6z"/>
			<polygon class="st1" points="72.07,97.26 81.89,107.08 81.89,97.26 			"/>
		</g>
		<path class="st1" d="M85,0C32.72,0,0,42.42,0,83.02s39.18,72,50.78,83.6S85,200,85,200s22.62-21.79,34.22-33.39
			S170,123.61,170,83.02S137.28,0,85,0z M85,134.84c-28.07,0-50.83-22.76-50.83-50.83S56.93,33.19,85,33.19s50.83,22.76,50.83,50.83
			S113.07,134.84,85,134.84z"/>
	</g>
</g>
</svg>