<!-- Generator: Adobe Illustrator 23.0.1, SVG Export Plug-In  -->
<svg version="1.1" xmlns="http://www.w3.org/2000/svg" xmlns:xlink="http://www.w3.org/1999/xlink" x="0px" y="0px"
	 width="101.66px" height="101.66px" viewBox="0 0 101.66 101.66" style="enable-background:new 0 0 101.66 101.66;"
	 xml:space="preserve">
<style type="text/css">
	.st0{fill:#FFFFFF;}
</style>
<defs>
</defs>
<g>
	<circle class="st0" cx="50.83" cy="50.83" r="50.83"/>
	<g>
		<path d="M50.83,50.28c5.58,0,10.11-5.5,10.11-12.28c0-6.78-1.49-12.28-10.11-12.28S40.72,31.21,40.72,38
			C40.72,44.78,45.24,50.28,50.83,50.28z"/>
		<path d="M31.73,69.03C31.73,68.62,31.73,68.92,31.73,69.03L31.73,69.03z"/>
		<path d="M69.93,69.36C69.93,69.24,69.93,68.57,69.93,69.36L69.93,69.36z"/>
		<path d="M69.9,68.54c-0.19-11.82-1.73-15.18-13.54-17.31c0,0-1.66,2.12-5.54,2.12s-5.54-2.12-5.54-2.12
			c-11.68,2.11-13.32,5.43-13.53,16.93c-0.02,0.94-0.03,0.99-0.03,0.88c0,0.2,0,0.58,0,1.24c0,0,2.81,5.67,19.1,5.67
			c16.29,0,19.1-5.67,19.1-5.67c0-0.42,0-0.72,0-0.92C69.92,69.42,69.92,69.29,69.9,68.54z"/>
	</g>
</g>
</svg>