<!-- Generator: Adobe Illustrator 23.0.1, SVG Export Plug-In  -->
<svg version="1.1" xmlns="http://www.w3.org/2000/svg" xmlns:xlink="http://www.w3.org/1999/xlink" x="0px" y="0px" width="170px"
	 height="200px" viewBox="0 0 170 200" style="enable-background:new 0 0 170 200;" xml:space="preserve">
<style type="text/css">
	.st0{fill:#FFFFFF;}
	.st1{fill:#804230;}
</style>
<defs>
</defs>
<g>
	<ellipse class="st0" cx="85" cy="85.33" rx="67.67" ry="60.16"/>
	<g>
		<path class="st1" d="M107.33,78.18C107.33,59.12,85,58.54,85,58.54s-22.33,0.58-22.33,19.64c0,0-0.32,4.59,2.82,8.8
			c0,0-2.99,5.97-0.08,8.8c2.91,2.83,7.73,1.38,7.73,1.38v5.2c0,0-1.3,3.69,5.89,3.69v-3.84c0,0-0.31-2.14,1.53-2.14
			s1.53,2.07,1.53,2.07v3.92H85h2.9v-3.92c0,0-0.31-2.07,1.53-2.07s1.53,2.14,1.53,2.14v3.84c7.19,0,5.89-3.69,5.89-3.69v-5.2
			c0,0,4.82,1.45,7.73-1.38c2.91-2.83-0.08-8.8-0.08-8.8C107.65,82.77,107.33,78.18,107.33,78.18z M76.95,87.53
			c-2.89,0-5.23-2.34-5.23-5.23c0-2.89,2.34-5.23,5.23-5.23c2.89,0,5.23,2.34,5.23,5.23C82.18,85.19,79.84,87.53,76.95,87.53z
			 M93.05,87.53c-2.89,0-5.23-2.34-5.23-5.23c0-2.89,2.34-5.23,5.23-5.23c2.89,0,5.23,2.34,5.23,5.23
			C98.29,85.19,95.94,87.53,93.05,87.53z"/>
		<path class="st1" d="M85,0C32.72,0,0,42.42,0,83.02s39.18,72,50.78,83.6S85,200,85,200s22.62-21.79,34.22-33.39
			S170,123.61,170,83.02S137.28,0,85,0z M85,134.84c-28.07,0-50.83-22.76-50.83-50.83S56.93,33.19,85,33.19s50.83,22.76,50.83,50.83
			S113.07,134.84,85,134.84z"/>
	</g>
</g>
</svg>